<svg xmlns="http://www.w3.org/2000/svg" viewBox="0 0 720 140" width="720" height="140">
  <defs>
    <linearGradient id="bg" x1="0" y1="0" x2="1" y2="0">
      <stop offset="0%" stop-color="#111113"/>
      <stop offset="100%" stop-color="#0c0c0e"/>
    </linearGradient>
  </defs>

  <!-- Background -->
  <rect width="720" height="140" rx="14" fill="url(#bg)"/>
  <!-- Border -->
  <rect width="720" height="140" rx="14" fill="none" stroke="#27272a" stroke-width="1.5"/>

  <!-- MDI coffee icon (mdi:coffee) – amber, scaled to 96px -->
  <g transform="translate(22, 22) scale(4)" fill="#f59e0b">
    <path d="M2,21V19H20V21H2M20,8V5H18V8H20M20,3A2,2 0 0,1 22,5V8A2,2 0 0,1 20,10H18V13A4,4 0 0,1 14,17H8A4,4 0 0,1 4,13V3H20M16,5H6V13A2,2 0 0,0 8,15H14A2,2 0 0,0 16,13V5Z"/>
  </g>

  <!-- Divider -->
  <line x1="138" y1="24" x2="138" y2="116" stroke="#27272a" stroke-width="1.5"/>

  <!-- GLP wordmark -->
  <text x="162" y="101"
        font-family="-apple-system, BlinkMacSystemFont, 'Segoe UI', system-ui, sans-serif"
        font-size="68" font-weight="800" fill="white" letter-spacing="-2">GLP</text>

  <!-- Subtitle -->
  <text x="165" y="123"
        font-family="-apple-system, BlinkMacSystemFont, 'Segoe UI', system-ui, sans-serif"
        font-size="12" font-weight="500" fill="#52525b" letter-spacing="3.5">GAGGIUINO LOCAL PROFILER</text>

  <!-- Subtle pressure-curve hint (very low opacity) -->
  <polyline points="490,104 514,86 536,58 556,40 578,37 602,39 626,37 650,39 674,42 700,46"
            fill="none" stroke="#f59e0b" stroke-width="1.5" stroke-linecap="round" stroke-linejoin="round" opacity="0.12"/>
  <polyline points="490,104 514,100 536,82 556,44 578,38 602,32 626,30 650,31 674,34 700,38"
            fill="none" stroke="#3b82f6" stroke-width="1.5" stroke-linecap="round" stroke-linejoin="round" opacity="0.10"/>
</svg>
